<?xml version="1.0" encoding="utf-8"?>
<!-- Generator: Adobe Illustrator 16.0.0, SVG Export Plug-In . SVG Version: 6.00 Build 0)  -->
<!DOCTYPE svg PUBLIC "-//W3C//DTD SVG 1.1//EN" "http://www.w3.org/Graphics/SVG/1.1/DTD/svg11.dtd">
<svg version="1.1" id="Layer_1" xmlns:sketch="http://www.bohemiancoding.com/sketch/ns"
	 xmlns="http://www.w3.org/2000/svg" xmlns:xlink="http://www.w3.org/1999/xlink" x="0px" y="0px" width="126px" height="39px"
	 viewBox="0 0 126 39" enable-background="new 0 0 126 39" xml:space="preserve">
<title>GobMx Logo 2@3x</title>
<desc>Created with Sketch.</desc>
<g>
	<path fill="#FFFFFF" d="M16.699,12.395c3.113,0,4.687,0.989,5.553,1.911h0.192c0.097-1.194,0.322-2.013,1.925-2.013
		c0.804,0,1.766,0.205,2.344,0.443l-0.225,2.252c-0.673-0.103-1.123-0.103-1.509-0.103c-1.38,0-1.411,0.784-1.476,1.944
		c0.16,0.512,0.256,1.194,0.256,1.672c0,3.685-2.921,5.694-7.286,5.694c-0.159,0-0.513,0-0.738-0.034
		c-1.027,0.409-2.729,1.298-2.729,2.594c0,1.022,1.059,1.263,1.798,1.263h5.488c4.012,0,6.161,1.57,6.161,4.877
		C26.426,37.84,20.518,39,16.346,39c-2.696,0-7.895-0.614-7.895-4.641c0-2.353,1.573-3.512,2.953-4.295v-0.205
		c-1.7-0.58-1.99-1.604-1.99-2.389c0-2.013,1.958-3.275,3.66-3.922l-0.032-0.171c-2.247-0.751-3.595-2.457-3.595-4.912
		C9.478,14.714,12.27,12.395,16.699,12.395z M15.512,30.779c-0.9,0.17-2.952,1.092-2.952,3.002c0,2.148,2.567,2.559,4.556,2.559
		c2.312,0,5.168-0.717,5.201-3.273c0-1.365-0.707-2.287-2.73-2.287H15.512L15.512,30.779z M16.604,21.74
		c2.053,0,3.402-1.125,3.402-3.342c0-2.218-1.188-3.513-3.241-3.513c-2.183,0-3.306,1.331-3.306,3.547
		C13.458,20.104,14.421,21.74,16.604,21.74z"/>
	<path fill="#FFFFFF" d="M27.243,21.979c0-6.173,2.983-9.583,8.505-9.583c5.552,0,8.473,3.341,8.473,9.583
		c0,6.787-3.467,9.481-8.506,9.481C30.709,31.461,27.243,28.665,27.243,21.979z M40.048,21.979c0-4.707-1.765-6.377-4.3-6.377
		c-2.568,0-4.334,1.637-4.334,6.411c0,4.266,1.668,6.275,4.334,6.275C38.443,28.288,40.048,26.312,40.048,21.979z"/>
	<path fill="#FFFFFF" d="M46.803,4.891h4.107v6.311l-0.096,3.649l0.16,0.068c1.156-1.194,2.601-2.524,5.04-2.524
		c4.525,0,6.965,4.195,6.965,9.208c0,6.105-2.665,9.856-8.379,9.856c-1.83,0-3.787-0.237-5.873-1.33l-0.673,1.024h-1.252
		L46.803,4.891L46.803,4.891z M50.91,18.091v9.414c1.06,0.546,2.279,0.853,3.275,0.853c3.37,0,4.621-2.83,4.621-6.547
		c0-3.583-1.411-6.173-3.723-6.173C53.414,15.636,51.939,16.659,50.91,18.091z"/>
	<path fill="#D03A21" d="M66.586,26.65c1.38,0,2.409,1.024,2.409,2.455c0,1.365-1.029,2.354-2.409,2.354
		c-1.379,0-2.374-0.989-2.374-2.354C64.212,27.676,65.207,26.65,66.586,26.65z"/>
	<path fill="#FFFFFF" d="M115.27,26.891c-1.445-2.115-1.927-2.932-3.469-5.524c0.898-1.397,3.18-5.015,5.266-8.664H112.7
		c-1.667,3.172-3.079,5.458-3.657,6.48h-0.161c-0.897-1.466-1.573-2.626-2.599-4.195c-1.315-1.979-2.055-2.354-3.819-2.354
		c-0.547,0-1.026,0.034-1.638,0.068v2.831c0.609,0,1.314,0.307,2.054,1.365c1.22,1.739,1.894,2.863,3.083,4.774
		c-0.763,1.177-2,3.185-2.482,3.823c-0.487,0.642-1.623,2.113-3.162,2.113c-2.073,0-2.104-1.693-2.104-2.857c0-0.619,0-5.33,0-5.33
		c0-4.332-1.767-7.026-5.683-7.026c-1.988,0-4.043,0.818-6.033,2.899h-0.227c-0.864-1.843-2.438-2.899-4.748-2.899
		c-2.086,0-3.787,0.785-5.715,2.763l-0.224-0.034l-0.418-2.422h-3.435v18.453h4.108V18.398c0.931-1.466,2.662-2.524,4.237-2.524
		c1.925,0,2.855,1.365,2.855,4.161v11.121h4.105V18.193c0.964-1.466,2.602-2.319,4.174-2.319c1.959,0,2.891,1.365,2.891,4.161
		l-0.01,5.716c0,2.915,1.76,5.405,5.566,5.405c5.365,0,6.384-2.775,7.271-4.186c0.738-1.176,1.758-3.048,1.758-3.048h0.158
		c1.092,1.843,1.895,3.276,3.084,4.981c1.346,1.875,2.084,2.421,3.723,2.421c0.642,0,1.41-0.068,1.895-0.171v-2.934
		C116.585,28.188,115.941,27.744,115.27,26.891z"/>
</g>
</svg>
